%TF.GenerationSoftware,KiCad,Pcbnew,5.1.8*%
%TF.CreationDate,2020-12-29T16:08:40+01:00*%
%TF.ProjectId,RadioPowerProtection,52616469-6f50-46f7-9765-7250726f7465,rev?*%
%TF.SameCoordinates,Original*%
%TF.FileFunction,Soldermask,Top*%
%TF.FilePolarity,Negative*%
%FSLAX46Y46*%
G04 Gerber Fmt 4.6, Leading zero omitted, Abs format (unit mm)*
G04 Created by KiCad (PCBNEW 5.1.8) date 2020-12-29 16:08:40*
%MOMM*%
%LPD*%
G01*
G04 APERTURE LIST*
%ADD10C,1.500000*%
%ADD11C,2.000000*%
%ADD12C,0.100000*%
%ADD13R,1.250000X1.250000*%
%ADD14O,5.000000X5.000000*%
%ADD15R,2.000000X1.905000*%
%ADD16O,2.000000X1.905000*%
%ADD17C,2.000000*%
%ADD18R,0.800000X0.900000*%
%ADD19C,0.250000*%
G04 APERTURE END LIST*
D10*
X168250000Y-95750000D02*
G75*
G02*
X168250000Y-89250000I0J3250000D01*
G01*
D11*
X144750000Y-90000000D02*
X151250000Y-90000000D01*
D12*
G36*
X139000000Y-97750000D02*
G01*
X125000000Y-97750000D01*
X125000000Y-87250000D01*
X139000000Y-87250000D01*
X139000000Y-97750000D01*
G37*
X139000000Y-97750000D02*
X125000000Y-97750000D01*
X125000000Y-87250000D01*
X139000000Y-87250000D01*
X139000000Y-97750000D01*
D13*
%TO.C,D2*%
X156000000Y-89500000D03*
X156000000Y-91500000D03*
%TD*%
%TO.C,D3*%
X156000000Y-93500000D03*
X156000000Y-95500000D03*
%TD*%
%TO.C,D4*%
X162000000Y-89500000D03*
X162000000Y-91500000D03*
%TD*%
D14*
%TO.C,Q2*%
X167910000Y-92500000D03*
D15*
X151250000Y-95040000D03*
D16*
X151250000Y-92500000D03*
X151250000Y-89960000D03*
%TD*%
D14*
%TO.C,Q1*%
X128090000Y-92500000D03*
D15*
X144750000Y-95040000D03*
D16*
X144750000Y-92500000D03*
X144750000Y-89960000D03*
%TD*%
D17*
%TO.C,GND*%
X148000000Y-95000000D03*
%TD*%
D13*
%TO.C,R3*%
X162000000Y-93500000D03*
X162000000Y-95500000D03*
%TD*%
D18*
%TO.C,Q3*%
X159950000Y-89500000D03*
X158050000Y-89500000D03*
X159000000Y-91500000D03*
%TD*%
D13*
%TO.C,R5*%
X154000000Y-89500000D03*
X154000000Y-91500000D03*
%TD*%
%TO.C,R4*%
X154000000Y-93500000D03*
X154000000Y-95500000D03*
%TD*%
%TO.C,C2*%
X158000000Y-93500000D03*
X158000000Y-95500000D03*
%TD*%
D19*
X170875000Y-97875000D02*
X165125000Y-97875000D01*
X165125000Y-87125000D01*
X170875000Y-87125000D01*
X170875000Y-97875000D01*
D12*
G36*
X170875000Y-97875000D02*
G01*
X165125000Y-97875000D01*
X165125000Y-87125000D01*
X170875000Y-87125000D01*
X170875000Y-97875000D01*
G37*
M02*
