M48
INCH,TZ
T1C0.0157
T2C0.0295
T3C0.0394
T4C0.0433
T5C0.1378
%
G90
G05
T1
X56398Y-38091
X60138Y-38091
T2
X52854Y-36417
X54331Y-35236
X54331Y-36417
X54331Y-37598
X57776Y-35039
X57776Y-35827
X58760Y-35039
X58760Y-35827
X64665Y-35236
X64665Y-37598
T3
X62795Y-36811
X58268Y-37402
T4
X56988Y-35417
X56988Y-36417
X56988Y-37417
X59547Y-35417
X59547Y-36417
X59547Y-37417
T5
X50429Y-36417
X66106Y-36417
T0
M30
