%TF.GenerationSoftware,KiCad,Pcbnew,5.1.8*%
%TF.CreationDate,2020-12-29T16:08:40+01:00*%
%TF.ProjectId,RadioPowerProtection,52616469-6f50-46f7-9765-7250726f7465,rev?*%
%TF.SameCoordinates,Original*%
%TF.FileFunction,Legend,Bot*%
%TF.FilePolarity,Positive*%
%FSLAX46Y46*%
G04 Gerber Fmt 4.6, Leading zero omitted, Abs format (unit mm)*
G04 Created by KiCad (PCBNEW 5.1.8) date 2020-12-29 16:08:40*
%MOMM*%
%LPD*%
G01*
G04 APERTURE LIST*
%ADD10C,0.150000*%
%ADD11C,0.100000*%
%ADD12C,0.200000*%
%ADD13C,0.120000*%
G04 APERTURE END LIST*
D10*
X137321428Y-92339285D02*
X137142857Y-92839285D01*
X136964285Y-92339285D01*
X136285714Y-92839285D02*
X136714285Y-92839285D01*
X136500000Y-92839285D02*
X136500000Y-92089285D01*
X136571428Y-92196428D01*
X136642857Y-92267857D01*
X136714285Y-92303571D01*
X135964285Y-92767857D02*
X135928571Y-92803571D01*
X135964285Y-92839285D01*
X136000000Y-92803571D01*
X135964285Y-92767857D01*
X135964285Y-92839285D01*
X135464285Y-92089285D02*
X135392857Y-92089285D01*
X135321428Y-92125000D01*
X135285714Y-92160714D01*
X135250000Y-92232142D01*
X135214285Y-92375000D01*
X135214285Y-92553571D01*
X135250000Y-92696428D01*
X135285714Y-92767857D01*
X135321428Y-92803571D01*
X135392857Y-92839285D01*
X135464285Y-92839285D01*
X135535714Y-92803571D01*
X135571428Y-92767857D01*
X135607142Y-92696428D01*
X135642857Y-92553571D01*
X135642857Y-92375000D01*
X135607142Y-92232142D01*
X135571428Y-92160714D01*
X135535714Y-92125000D01*
X135464285Y-92089285D01*
D11*
G36*
X148750000Y-88000000D02*
G01*
X147500000Y-88500000D01*
X147500000Y-87500000D01*
X148750000Y-88000000D01*
G37*
X148750000Y-88000000D02*
X147500000Y-88500000D01*
X147500000Y-87500000D01*
X148750000Y-88000000D01*
D10*
X152000000Y-87589285D02*
X151857142Y-87589285D01*
X151785714Y-87625000D01*
X151714285Y-87696428D01*
X151678571Y-87839285D01*
X151678571Y-88089285D01*
X151714285Y-88232142D01*
X151785714Y-88303571D01*
X151857142Y-88339285D01*
X152000000Y-88339285D01*
X152071428Y-88303571D01*
X152142857Y-88232142D01*
X152178571Y-88089285D01*
X152178571Y-87839285D01*
X152142857Y-87696428D01*
X152071428Y-87625000D01*
X152000000Y-87589285D01*
X151357142Y-87589285D02*
X151357142Y-88196428D01*
X151321428Y-88267857D01*
X151285714Y-88303571D01*
X151214285Y-88339285D01*
X151071428Y-88339285D01*
X151000000Y-88303571D01*
X150964285Y-88267857D01*
X150928571Y-88196428D01*
X150928571Y-87589285D01*
X150678571Y-87589285D02*
X150250000Y-87589285D01*
X150464285Y-88339285D02*
X150464285Y-87589285D01*
X145142857Y-88339285D02*
X145142857Y-87589285D01*
X144785714Y-88339285D02*
X144785714Y-87589285D01*
X144357142Y-88339285D01*
X144357142Y-87589285D01*
X137410714Y-90839285D02*
X137410714Y-91589285D01*
X137410714Y-90875000D02*
X137339285Y-90839285D01*
X137196428Y-90839285D01*
X137125000Y-90875000D01*
X137089285Y-90910714D01*
X137053571Y-90982142D01*
X137053571Y-91196428D01*
X137089285Y-91267857D01*
X137125000Y-91303571D01*
X137196428Y-91339285D01*
X137339285Y-91339285D01*
X137410714Y-91303571D01*
X136732142Y-91339285D02*
X136732142Y-90839285D01*
X136732142Y-90982142D02*
X136696428Y-90910714D01*
X136660714Y-90875000D01*
X136589285Y-90839285D01*
X136517857Y-90839285D01*
X136160714Y-91339285D02*
X136232142Y-91303571D01*
X136267857Y-91267857D01*
X136303571Y-91196428D01*
X136303571Y-90982142D01*
X136267857Y-90910714D01*
X136232142Y-90875000D01*
X136160714Y-90839285D01*
X136053571Y-90839285D01*
X135982142Y-90875000D01*
X135946428Y-90910714D01*
X135910714Y-90982142D01*
X135910714Y-91196428D01*
X135946428Y-91267857D01*
X135982142Y-91303571D01*
X136053571Y-91339285D01*
X136160714Y-91339285D01*
X135696428Y-90839285D02*
X135410714Y-90839285D01*
X135589285Y-90589285D02*
X135589285Y-91232142D01*
X135553571Y-91303571D01*
X135482142Y-91339285D01*
X135410714Y-91339285D01*
X134875000Y-91303571D02*
X134946428Y-91339285D01*
X135089285Y-91339285D01*
X135160714Y-91303571D01*
X135196428Y-91232142D01*
X135196428Y-90946428D01*
X135160714Y-90875000D01*
X135089285Y-90839285D01*
X134946428Y-90839285D01*
X134875000Y-90875000D01*
X134839285Y-90946428D01*
X134839285Y-91017857D01*
X135196428Y-91089285D01*
X134196428Y-91303571D02*
X134267857Y-91339285D01*
X134410714Y-91339285D01*
X134482142Y-91303571D01*
X134517857Y-91267857D01*
X134553571Y-91196428D01*
X134553571Y-90982142D01*
X134517857Y-90910714D01*
X134482142Y-90875000D01*
X134410714Y-90839285D01*
X134267857Y-90839285D01*
X134196428Y-90875000D01*
X133982142Y-90839285D02*
X133696428Y-90839285D01*
X133875000Y-90589285D02*
X133875000Y-91232142D01*
X133839285Y-91303571D01*
X133767857Y-91339285D01*
X133696428Y-91339285D01*
X133446428Y-91339285D02*
X133446428Y-90839285D01*
X133446428Y-90589285D02*
X133482142Y-90625000D01*
X133446428Y-90660714D01*
X133410714Y-90625000D01*
X133446428Y-90589285D01*
X133446428Y-90660714D01*
X132982142Y-91339285D02*
X133053571Y-91303571D01*
X133089285Y-91267857D01*
X133125000Y-91196428D01*
X133125000Y-90982142D01*
X133089285Y-90910714D01*
X133053571Y-90875000D01*
X132982142Y-90839285D01*
X132875000Y-90839285D01*
X132803571Y-90875000D01*
X132767857Y-90910714D01*
X132732142Y-90982142D01*
X132732142Y-91196428D01*
X132767857Y-91267857D01*
X132803571Y-91303571D01*
X132875000Y-91339285D01*
X132982142Y-91339285D01*
X132410714Y-90839285D02*
X132410714Y-91339285D01*
X132410714Y-90910714D02*
X132375000Y-90875000D01*
X132303571Y-90839285D01*
X132196428Y-90839285D01*
X132125000Y-90875000D01*
X132089285Y-90946428D01*
X132089285Y-91339285D01*
X136678571Y-90089285D02*
X136750000Y-90053571D01*
X136785714Y-90017857D01*
X136821428Y-89946428D01*
X136821428Y-89732142D01*
X136785714Y-89660714D01*
X136750000Y-89625000D01*
X136678571Y-89589285D01*
X136571428Y-89589285D01*
X136500000Y-89625000D01*
X136464285Y-89660714D01*
X136428571Y-89732142D01*
X136428571Y-89946428D01*
X136464285Y-90017857D01*
X136500000Y-90053571D01*
X136571428Y-90089285D01*
X136678571Y-90089285D01*
X136178571Y-89589285D02*
X136000000Y-90089285D01*
X135821428Y-89589285D01*
X135250000Y-90053571D02*
X135321428Y-90089285D01*
X135464285Y-90089285D01*
X135535714Y-90053571D01*
X135571428Y-89982142D01*
X135571428Y-89696428D01*
X135535714Y-89625000D01*
X135464285Y-89589285D01*
X135321428Y-89589285D01*
X135250000Y-89625000D01*
X135214285Y-89696428D01*
X135214285Y-89767857D01*
X135571428Y-89839285D01*
X134892857Y-90089285D02*
X134892857Y-89589285D01*
X134892857Y-89732142D02*
X134857142Y-89660714D01*
X134821428Y-89625000D01*
X134750000Y-89589285D01*
X134678571Y-89589285D01*
X134500000Y-89589285D02*
X134321428Y-90089285D01*
X134142857Y-89589285D01*
X133750000Y-90089285D02*
X133821428Y-90053571D01*
X133857142Y-90017857D01*
X133892857Y-89946428D01*
X133892857Y-89732142D01*
X133857142Y-89660714D01*
X133821428Y-89625000D01*
X133750000Y-89589285D01*
X133642857Y-89589285D01*
X133571428Y-89625000D01*
X133535714Y-89660714D01*
X133500000Y-89732142D01*
X133500000Y-89946428D01*
X133535714Y-90017857D01*
X133571428Y-90053571D01*
X133642857Y-90089285D01*
X133750000Y-90089285D01*
X133071428Y-90089285D02*
X133142857Y-90053571D01*
X133178571Y-89982142D01*
X133178571Y-89339285D01*
X132892857Y-89589285D02*
X132607142Y-89589285D01*
X132785714Y-89339285D02*
X132785714Y-89982142D01*
X132750000Y-90053571D01*
X132678571Y-90089285D01*
X132607142Y-90089285D01*
X137053571Y-88839285D02*
X137303571Y-88482142D01*
X137482142Y-88839285D02*
X137482142Y-88089285D01*
X137196428Y-88089285D01*
X137125000Y-88125000D01*
X137089285Y-88160714D01*
X137053571Y-88232142D01*
X137053571Y-88339285D01*
X137089285Y-88410714D01*
X137125000Y-88446428D01*
X137196428Y-88482142D01*
X137482142Y-88482142D01*
X136446428Y-88803571D02*
X136517857Y-88839285D01*
X136660714Y-88839285D01*
X136732142Y-88803571D01*
X136767857Y-88732142D01*
X136767857Y-88446428D01*
X136732142Y-88375000D01*
X136660714Y-88339285D01*
X136517857Y-88339285D01*
X136446428Y-88375000D01*
X136410714Y-88446428D01*
X136410714Y-88517857D01*
X136767857Y-88589285D01*
X136160714Y-88339285D02*
X135982142Y-88839285D01*
X135803571Y-88339285D01*
X135232142Y-88803571D02*
X135303571Y-88839285D01*
X135446428Y-88839285D01*
X135517857Y-88803571D01*
X135553571Y-88732142D01*
X135553571Y-88446428D01*
X135517857Y-88375000D01*
X135446428Y-88339285D01*
X135303571Y-88339285D01*
X135232142Y-88375000D01*
X135196428Y-88446428D01*
X135196428Y-88517857D01*
X135553571Y-88589285D01*
X134875000Y-88839285D02*
X134875000Y-88339285D01*
X134875000Y-88482142D02*
X134839285Y-88410714D01*
X134803571Y-88375000D01*
X134732142Y-88339285D01*
X134660714Y-88339285D01*
X134446428Y-88803571D02*
X134375000Y-88839285D01*
X134232142Y-88839285D01*
X134160714Y-88803571D01*
X134125000Y-88732142D01*
X134125000Y-88696428D01*
X134160714Y-88625000D01*
X134232142Y-88589285D01*
X134339285Y-88589285D01*
X134410714Y-88553571D01*
X134446428Y-88482142D01*
X134446428Y-88446428D01*
X134410714Y-88375000D01*
X134339285Y-88339285D01*
X134232142Y-88339285D01*
X134160714Y-88375000D01*
X133517857Y-88803571D02*
X133589285Y-88839285D01*
X133732142Y-88839285D01*
X133803571Y-88803571D01*
X133839285Y-88732142D01*
X133839285Y-88446428D01*
X133803571Y-88375000D01*
X133732142Y-88339285D01*
X133589285Y-88339285D01*
X133517857Y-88375000D01*
X133482142Y-88446428D01*
X133482142Y-88517857D01*
X133839285Y-88589285D01*
X131982142Y-88839285D02*
X132017857Y-88839285D01*
X132089285Y-88803571D01*
X132196428Y-88696428D01*
X132375000Y-88482142D01*
X132446428Y-88375000D01*
X132482142Y-88267857D01*
X132482142Y-88196428D01*
X132446428Y-88125000D01*
X132375000Y-88089285D01*
X132339285Y-88089285D01*
X132267857Y-88125000D01*
X132232142Y-88196428D01*
X132232142Y-88232142D01*
X132267857Y-88303571D01*
X132303571Y-88339285D01*
X132517857Y-88482142D01*
X132553571Y-88517857D01*
X132589285Y-88589285D01*
X132589285Y-88696428D01*
X132553571Y-88767857D01*
X132517857Y-88803571D01*
X132446428Y-88839285D01*
X132339285Y-88839285D01*
X132267857Y-88803571D01*
X132232142Y-88767857D01*
X132125000Y-88625000D01*
X132089285Y-88517857D01*
X132089285Y-88446428D01*
X136285714Y-96160714D02*
X136250000Y-96125000D01*
X136178571Y-96089285D01*
X136000000Y-96089285D01*
X135928571Y-96125000D01*
X135892857Y-96160714D01*
X135857142Y-96232142D01*
X135857142Y-96303571D01*
X135892857Y-96410714D01*
X136321428Y-96839285D01*
X135857142Y-96839285D01*
X135392857Y-96089285D02*
X135321428Y-96089285D01*
X135250000Y-96125000D01*
X135214285Y-96160714D01*
X135178571Y-96232142D01*
X135142857Y-96375000D01*
X135142857Y-96553571D01*
X135178571Y-96696428D01*
X135214285Y-96767857D01*
X135250000Y-96803571D01*
X135321428Y-96839285D01*
X135392857Y-96839285D01*
X135464285Y-96803571D01*
X135500000Y-96767857D01*
X135535714Y-96696428D01*
X135571428Y-96553571D01*
X135571428Y-96375000D01*
X135535714Y-96232142D01*
X135500000Y-96160714D01*
X135464285Y-96125000D01*
X135392857Y-96089285D01*
X134857142Y-96160714D02*
X134821428Y-96125000D01*
X134750000Y-96089285D01*
X134571428Y-96089285D01*
X134500000Y-96125000D01*
X134464285Y-96160714D01*
X134428571Y-96232142D01*
X134428571Y-96303571D01*
X134464285Y-96410714D01*
X134892857Y-96839285D01*
X134428571Y-96839285D01*
X133964285Y-96089285D02*
X133892857Y-96089285D01*
X133821428Y-96125000D01*
X133785714Y-96160714D01*
X133750000Y-96232142D01*
X133714285Y-96375000D01*
X133714285Y-96553571D01*
X133750000Y-96696428D01*
X133785714Y-96767857D01*
X133821428Y-96803571D01*
X133892857Y-96839285D01*
X133964285Y-96839285D01*
X134035714Y-96803571D01*
X134071428Y-96767857D01*
X134107142Y-96696428D01*
X134142857Y-96553571D01*
X134142857Y-96375000D01*
X134107142Y-96232142D01*
X134071428Y-96160714D01*
X134035714Y-96125000D01*
X133964285Y-96089285D01*
X136928571Y-95196428D02*
X136678571Y-95196428D01*
X136571428Y-95589285D02*
X136928571Y-95589285D01*
X136928571Y-94839285D01*
X136571428Y-94839285D01*
X136285714Y-95375000D02*
X135928571Y-95375000D01*
X136357142Y-95589285D02*
X136107142Y-94839285D01*
X135857142Y-95589285D01*
X135678571Y-94839285D02*
X135178571Y-94839285D01*
X135500000Y-95589285D01*
X134892857Y-95589285D02*
X134892857Y-94839285D01*
X134464285Y-95589285D02*
X134785714Y-95160714D01*
X134464285Y-94839285D02*
X134892857Y-95267857D01*
X134142857Y-95589285D02*
X134142857Y-94839285D01*
X133714285Y-95589285D02*
X134035714Y-95160714D01*
X133714285Y-94839285D02*
X134142857Y-95267857D01*
X133392857Y-95196428D02*
X133142857Y-95196428D01*
X133035714Y-95589285D02*
X133392857Y-95589285D01*
X133392857Y-94839285D01*
X133035714Y-94839285D01*
D12*
%TO.C,D1*%
X140900000Y-88600000D02*
X140900000Y-92400000D01*
X140900000Y-92400000D02*
X139100000Y-92400000D01*
X139100000Y-92400000D02*
X139100000Y-88600000D01*
X139600000Y-88600000D02*
X140400000Y-88600000D01*
D13*
%TO.C,Q2*%
X154940000Y-89960000D02*
X152400000Y-89960000D01*
X154940000Y-92500000D02*
X152400000Y-92500000D01*
X154940000Y-95040000D02*
X152400000Y-95040000D01*
X170830000Y-87380000D02*
X154940000Y-87380000D01*
X170830000Y-97620000D02*
X154940000Y-97620000D01*
X170830000Y-97620000D02*
X170830000Y-87380000D01*
X154940000Y-97620000D02*
X154940000Y-87380000D01*
D12*
%TO.C,R2*%
X142900000Y-92400000D02*
X141100000Y-92400000D01*
X142900000Y-88600000D02*
X142900000Y-92400000D01*
X141100000Y-88600000D02*
X142900000Y-88600000D01*
X141100000Y-92400000D02*
X141100000Y-88600000D01*
%TO.C,R1*%
X142900000Y-96400000D02*
X141100000Y-96400000D01*
X142900000Y-92600000D02*
X142900000Y-96400000D01*
X141100000Y-92600000D02*
X142900000Y-92600000D01*
X141100000Y-96400000D02*
X141100000Y-92600000D01*
%TO.C,C1*%
X140900000Y-96400000D02*
X139100000Y-96400000D01*
X140900000Y-92600000D02*
X140900000Y-96400000D01*
X139100000Y-92600000D02*
X140900000Y-92600000D01*
X139100000Y-96400000D02*
X139100000Y-92600000D01*
%TO.C,D1*%
D10*
X140553571Y-88339285D02*
X140553571Y-87589285D01*
X140375000Y-87589285D01*
X140267857Y-87625000D01*
X140196428Y-87696428D01*
X140160714Y-87767857D01*
X140125000Y-87910714D01*
X140125000Y-88017857D01*
X140160714Y-88160714D01*
X140196428Y-88232142D01*
X140267857Y-88303571D01*
X140375000Y-88339285D01*
X140553571Y-88339285D01*
X139410714Y-88339285D02*
X139839285Y-88339285D01*
X139625000Y-88339285D02*
X139625000Y-87589285D01*
X139696428Y-87696428D01*
X139767857Y-87767857D01*
X139839285Y-87803571D01*
%TO.C,Q2*%
X154071428Y-97660714D02*
X154142857Y-97625000D01*
X154214285Y-97553571D01*
X154321428Y-97446428D01*
X154392857Y-97410714D01*
X154464285Y-97410714D01*
X154428571Y-97589285D02*
X154500000Y-97553571D01*
X154571428Y-97482142D01*
X154607142Y-97339285D01*
X154607142Y-97089285D01*
X154571428Y-96946428D01*
X154500000Y-96875000D01*
X154428571Y-96839285D01*
X154285714Y-96839285D01*
X154214285Y-96875000D01*
X154142857Y-96946428D01*
X154107142Y-97089285D01*
X154107142Y-97339285D01*
X154142857Y-97482142D01*
X154214285Y-97553571D01*
X154285714Y-97589285D01*
X154428571Y-97589285D01*
X153821428Y-96910714D02*
X153785714Y-96875000D01*
X153714285Y-96839285D01*
X153535714Y-96839285D01*
X153464285Y-96875000D01*
X153428571Y-96910714D01*
X153392857Y-96982142D01*
X153392857Y-97053571D01*
X153428571Y-97160714D01*
X153857142Y-97589285D01*
X153392857Y-97589285D01*
%TO.C,R2*%
X142125000Y-88339285D02*
X142375000Y-87982142D01*
X142553571Y-88339285D02*
X142553571Y-87589285D01*
X142267857Y-87589285D01*
X142196428Y-87625000D01*
X142160714Y-87660714D01*
X142125000Y-87732142D01*
X142125000Y-87839285D01*
X142160714Y-87910714D01*
X142196428Y-87946428D01*
X142267857Y-87982142D01*
X142553571Y-87982142D01*
X141839285Y-87660714D02*
X141803571Y-87625000D01*
X141732142Y-87589285D01*
X141553571Y-87589285D01*
X141482142Y-87625000D01*
X141446428Y-87660714D01*
X141410714Y-87732142D01*
X141410714Y-87803571D01*
X141446428Y-87910714D01*
X141875000Y-88339285D01*
X141410714Y-88339285D01*
%TO.C,R1*%
X142125000Y-97589285D02*
X142375000Y-97232142D01*
X142553571Y-97589285D02*
X142553571Y-96839285D01*
X142267857Y-96839285D01*
X142196428Y-96875000D01*
X142160714Y-96910714D01*
X142125000Y-96982142D01*
X142125000Y-97089285D01*
X142160714Y-97160714D01*
X142196428Y-97196428D01*
X142267857Y-97232142D01*
X142553571Y-97232142D01*
X141410714Y-97589285D02*
X141839285Y-97589285D01*
X141625000Y-97589285D02*
X141625000Y-96839285D01*
X141696428Y-96946428D01*
X141767857Y-97017857D01*
X141839285Y-97053571D01*
%TO.C,C1*%
X140125000Y-97517857D02*
X140160714Y-97553571D01*
X140267857Y-97589285D01*
X140339285Y-97589285D01*
X140446428Y-97553571D01*
X140517857Y-97482142D01*
X140553571Y-97410714D01*
X140589285Y-97267857D01*
X140589285Y-97160714D01*
X140553571Y-97017857D01*
X140517857Y-96946428D01*
X140446428Y-96875000D01*
X140339285Y-96839285D01*
X140267857Y-96839285D01*
X140160714Y-96875000D01*
X140125000Y-96910714D01*
X139410714Y-97589285D02*
X139839285Y-97589285D01*
X139625000Y-97589285D02*
X139625000Y-96839285D01*
X139696428Y-96946428D01*
X139767857Y-97017857D01*
X139839285Y-97053571D01*
%TD*%
M02*
